<svg xmlns="http://www.w3.org/2000/svg" xmlns:xlink="http://www.w3.org/1999/xlink" contentStyleType="text/css" height="778px" preserveAspectRatio="none" style="width:2318px;height:778px;background:#FFFFFF;" version="1.1" viewBox="0 0 2318 778" width="2318px" zoomAndPan="magnify"><defs/><g><!--cluster 1846c75923656922409346559bd15573--><g id="cluster_1846c75923656922409346559bd15573"><polygon fill="none" points="16,132.6,26,122.6,364,122.6,364,652.08,354,662.08,16,662.08,16,132.6" style="stroke:#181818;stroke-width:1.0;"/><line style="stroke:#181818;stroke-width:1.0;" x1="354" x2="364" y1="132.6" y2="122.6"/><line style="stroke:#181818;stroke-width:1.0;" x1="16" x2="354" y1="132.6" y2="132.6"/><line style="stroke:#181818;stroke-width:1.0;" x1="354" x2="354" y1="132.6" y2="662.08"/><text fill="#000000" font-family="sans-serif" font-size="14" font-weight="bold" lengthAdjust="spacing" textLength="20" x="176" y="148.5951">Fir</text></g><!--cluster 3fc0b0e39deb19b8743538a35e88ff7f--><g id="cluster_3fc0b0e39deb19b8743538a35e88ff7f"><polygon fill="none" points="951,132.6,961,122.6,1164,122.6,1164,652.08,1154,662.08,951,662.08,951,132.6" style="stroke:#181818;stroke-width:1.0;"/><line style="stroke:#181818;stroke-width:1.0;" x1="1154" x2="1164" y1="132.6" y2="122.6"/><line style="stroke:#181818;stroke-width:1.0;" x1="951" x2="1154" y1="132.6" y2="132.6"/><line style="stroke:#181818;stroke-width:1.0;" x1="1154" x2="1154" y1="132.6" y2="662.08"/><text fill="#000000" font-family="sans-serif" font-size="14" font-weight="bold" lengthAdjust="spacing" textLength="47" x="1030" y="148.5951">Fir_db</text></g><!--cluster 18bf25ce34c23da189d824516a6e2a9e--><g id="cluster_18bf25ce34c23da189d824516a6e2a9e"><polygon fill="none" points="1204,132.6,1214,122.6,1443,122.6,1443,279.79,1433,289.79,1204,289.79,1204,132.6" style="stroke:#181818;stroke-width:1.0;"/><line style="stroke:#181818;stroke-width:1.0;" x1="1433" x2="1443" y1="132.6" y2="122.6"/><line style="stroke:#181818;stroke-width:1.0;" x1="1204" x2="1433" y1="132.6" y2="132.6"/><line style="stroke:#181818;stroke-width:1.0;" x1="1433" x2="1433" y1="132.6" y2="289.79"/><text fill="#000000" font-family="sans-serif" font-size="14" font-weight="bold" lengthAdjust="spacing" textLength="67" x="1286" y="148.5951">Fir_redis</text></g><!--cluster 943da6c77095a66ae9cbbc7af2bb1727--><g id="cluster_943da6c77095a66ae9cbbc7af2bb1727"><polygon fill="none" points="1483,132.6,1493,122.6,1727,122.6,1727,279.79,1717,289.79,1483,289.79,1483,132.6" style="stroke:#181818;stroke-width:1.0;"/><line style="stroke:#181818;stroke-width:1.0;" x1="1717" x2="1727" y1="132.6" y2="122.6"/><line style="stroke:#181818;stroke-width:1.0;" x1="1483" x2="1717" y1="132.6" y2="132.6"/><line style="stroke:#181818;stroke-width:1.0;" x1="1717" x2="1717" y1="132.6" y2="289.79"/><text fill="#000000" font-family="sans-serif" font-size="14" font-weight="bold" lengthAdjust="spacing" textLength="140" x="1531" y="148.5951">Fir_celery_worker</text></g><!--cluster f9f2f64c6ed9547bf3385852469be10b--><g id="cluster_f9f2f64c6ed9547bf3385852469be10b"><polygon fill="none" points="1767,132.6,1777,122.6,1990,122.6,1990,279.79,1980,289.79,1767,289.79,1767,132.6" style="stroke:#181818;stroke-width:1.0;"/><line style="stroke:#181818;stroke-width:1.0;" x1="1980" x2="1990" y1="132.6" y2="122.6"/><line style="stroke:#181818;stroke-width:1.0;" x1="1767" x2="1980" y1="132.6" y2="132.6"/><line style="stroke:#181818;stroke-width:1.0;" x1="1980" x2="1980" y1="132.6" y2="289.79"/><text fill="#000000" font-family="sans-serif" font-size="14" font-weight="bold" lengthAdjust="spacing" textLength="118" x="1815.5" y="148.5951">Fir_celery_beat</text></g><!--cluster e677578606ac4119536a88680cea8326--><g id="cluster_e677578606ac4119536a88680cea8326"><polygon fill="none" points="404,132.6,414,122.6,849,122.6,849,652.08,839,662.08,404,662.08,404,132.6" style="stroke:#181818;stroke-width:1.0;"/><line style="stroke:#181818;stroke-width:1.0;" x1="839" x2="849" y1="132.6" y2="122.6"/><line style="stroke:#181818;stroke-width:1.0;" x1="404" x2="839" y1="132.6" y2="132.6"/><line style="stroke:#181818;stroke-width:1.0;" x1="839" x2="839" y1="132.6" y2="662.08"/><text fill="#000000" font-family="sans-serif" font-size="14" font-weight="bold" lengthAdjust="spacing" textLength="61" x="592" y="148.5951">Fir_web</text></g><!--cluster 691b2293776915a64c9185056f9798d4--><g id="cluster_691b2293776915a64c9185056f9798d4"><polygon fill="none" points="2030,132.6,2040,122.6,2301,122.6,2301,279.79,2291,289.79,2030,289.79,2030,132.6" style="stroke:#181818;stroke-width:1.0;"/><line style="stroke:#181818;stroke-width:1.0;" x1="2291" x2="2301" y1="132.6" y2="122.6"/><line style="stroke:#181818;stroke-width:1.0;" x1="2030" x2="2291" y1="132.6" y2="132.6"/><line style="stroke:#181818;stroke-width:1.0;" x1="2291" x2="2291" y1="132.6" y2="289.79"/><text fill="#000000" font-family="sans-serif" font-size="14" font-weight="bold" lengthAdjust="spacing" textLength="107" x="2108" y="148.5951">Fir_fake_smtp</text></g><!--entity e8aca87688a2dfa427a62ad0504d55c2--><g id="elem_e8aca87688a2dfa427a62ad0504d55c2"><rect fill="#F1F1F1" height="95.1875" rx="2.5" ry="2.5" style="stroke:#181818;stroke-width:0.5;" width="146" x="101" y="170.6"/><rect fill="#F1F1F1" height="10" style="stroke:#181818;stroke-width:0.5;" width="15" x="227" y="175.6"/><rect fill="#F1F1F1" height="2" style="stroke:#181818;stroke-width:0.5;" width="4" x="225" y="177.6"/><rect fill="#F1F1F1" height="2" style="stroke:#181818;stroke-width:0.5;" width="4" x="225" y="181.6"/><text fill="#000000" font-family="sans-serif" font-size="14" font-weight="bold" lengthAdjust="spacing" textLength="17" x="116" y="203.5951">fir</text><text fill="#000000" font-family="sans-serif" font-size="14" lengthAdjust="spacing" textLength="4" x="116" y="219.892">&#160;</text><text fill="#000000" font-family="sans-serif" font-size="14" lengthAdjust="spacing" textLength="106" x="116" y="236.1889">image: fir:latest</text><text fill="#000000" font-family="sans-serif" font-size="14" lengthAdjust="spacing" textLength="4" x="116" y="252.4857">&#160;</text></g><!--entity 1c44be91a2782f85c2315f4e17370ff7--><g id="elem_1c44be91a2782f85c2315f4e17370ff7"><rect fill="#F1F1F1" height="39.2969" rx="2.5" ry="2.5" style="stroke:#181818;stroke-width:0.5;" width="121" x="40.5" y="598.79"/><polygon fill="#F1F1F1" points="144.5,603.79,144.5,617.79,156.5,617.79,156.5,609.79,150.5,603.79,144.5,603.79" style="stroke:#181818;stroke-width:0.5;"/><line style="stroke:#181818;stroke-width:0.5;" x1="150.5" x2="150.5" y1="603.79" y2="609.79"/><line style="stroke:#181818;stroke-width:0.5;" x1="156.5" x2="150.5" y1="609.79" y2="609.79"/><text fill="#000000" font-family="sans-serif" font-size="14" lengthAdjust="spacing" textLength="91" x="50.5" y="624.7851">/app/uploads</text></g><!--entity 95d8bbabb35db956ee75ce80b00cc5cf--><g id="elem_95d8bbabb35db956ee75ce80b00cc5cf"><rect fill="#F1F1F1" height="39.2969" rx="2.5" ry="2.5" style="stroke:#181818;stroke-width:0.5;" width="135" x="196.5" y="598.79"/><polygon fill="#F1F1F1" points="314.5,603.79,314.5,617.79,326.5,617.79,326.5,609.79,320.5,603.79,314.5,603.79" style="stroke:#181818;stroke-width:0.5;"/><line style="stroke:#181818;stroke-width:0.5;" x1="320.5" x2="320.5" y1="603.79" y2="609.79"/><line style="stroke:#181818;stroke-width:0.5;" x1="326.5" x2="320.5" y1="609.79" y2="609.79"/><text fill="#000000" font-family="sans-serif" font-size="14" lengthAdjust="spacing" textLength="105" x="206.5" y="624.7851">/var/www/static</text></g><!--entity 08cc2d131fbd18c7519779ee9ac1f6ab--><g id="elem_08cc2d131fbd18c7519779ee9ac1f6ab"><rect fill="#F1F1F1" height="95.1875" rx="2.5" ry="2.5" style="stroke:#181818;stroke-width:0.5;" width="146" x="975" y="170.6"/><rect fill="#F1F1F1" height="10" style="stroke:#181818;stroke-width:0.5;" width="15" x="1101" y="175.6"/><rect fill="#F1F1F1" height="2" style="stroke:#181818;stroke-width:0.5;" width="4" x="1099" y="177.6"/><rect fill="#F1F1F1" height="2" style="stroke:#181818;stroke-width:0.5;" width="4" x="1099" y="181.6"/><text fill="#000000" font-family="sans-serif" font-size="14" font-weight="bold" lengthAdjust="spacing" textLength="44" x="990" y="203.5951">fir_db</text><text fill="#000000" font-family="sans-serif" font-size="14" lengthAdjust="spacing" textLength="4" x="990" y="219.892">&#160;</text><text fill="#000000" font-family="sans-serif" font-size="14" lengthAdjust="spacing" textLength="106" x="990" y="236.1889">image: mariadb</text><text fill="#000000" font-family="sans-serif" font-size="14" lengthAdjust="spacing" textLength="4" x="990" y="252.4857">&#160;</text></g><!--entity 555b325c038b9326da5726ce82f98ada--><g id="elem_555b325c038b9326da5726ce82f98ada"><rect fill="#F1F1F1" height="39.2969" rx="2.5" ry="2.5" style="stroke:#181818;stroke-width:0.5;" width="120" x="988" y="598.79"/><polygon fill="#F1F1F1" points="1091,603.79,1091,617.79,1103,617.79,1103,609.79,1097,603.79,1091,603.79" style="stroke:#181818;stroke-width:0.5;"/><line style="stroke:#181818;stroke-width:0.5;" x1="1097" x2="1097" y1="603.79" y2="609.79"/><line style="stroke:#181818;stroke-width:0.5;" x1="1103" x2="1097" y1="609.79" y2="609.79"/><text fill="#000000" font-family="sans-serif" font-size="14" lengthAdjust="spacing" textLength="90" x="998" y="624.7851">/var/lib/mysql</text></g><!--entity 778955b379e303f7641d094134e8bdd1--><g id="elem_778955b379e303f7641d094134e8bdd1"><rect fill="#F1F1F1" height="95.1875" rx="2.5" ry="2.5" style="stroke:#181818;stroke-width:0.5;" width="171" x="1228.5" y="170.6"/><rect fill="#F1F1F1" height="10" style="stroke:#181818;stroke-width:0.5;" width="15" x="1379.5" y="175.6"/><rect fill="#F1F1F1" height="2" style="stroke:#181818;stroke-width:0.5;" width="4" x="1377.5" y="177.6"/><rect fill="#F1F1F1" height="2" style="stroke:#181818;stroke-width:0.5;" width="4" x="1377.5" y="181.6"/><text fill="#000000" font-family="sans-serif" font-size="14" font-weight="bold" lengthAdjust="spacing" textLength="64" x="1243.5" y="203.5951">fir_redis</text><text fill="#000000" font-family="sans-serif" font-size="14" lengthAdjust="spacing" textLength="4" x="1243.5" y="219.892">&#160;</text><text fill="#000000" font-family="sans-serif" font-size="14" lengthAdjust="spacing" textLength="131" x="1243.5" y="236.1889">image: redis:alpine</text><text fill="#000000" font-family="sans-serif" font-size="14" lengthAdjust="spacing" textLength="4" x="1243.5" y="252.4857">&#160;</text></g><!--entity a2dd2f370486c0aff9b95c69177f5b9b--><g id="elem_a2dd2f370486c0aff9b95c69177f5b9b"><rect fill="#F1F1F1" height="95.1875" rx="2.5" ry="2.5" style="stroke:#181818;stroke-width:0.5;" width="177" x="1506.5" y="170.6"/><rect fill="#F1F1F1" height="10" style="stroke:#181818;stroke-width:0.5;" width="15" x="1663.5" y="175.6"/><rect fill="#F1F1F1" height="2" style="stroke:#181818;stroke-width:0.5;" width="4" x="1661.5" y="177.6"/><rect fill="#F1F1F1" height="2" style="stroke:#181818;stroke-width:0.5;" width="4" x="1661.5" y="181.6"/><text fill="#000000" font-family="sans-serif" font-size="14" font-weight="bold" lengthAdjust="spacing" textLength="137" x="1521.5" y="203.5951">fir_celery_worker</text><text fill="#000000" font-family="sans-serif" font-size="14" lengthAdjust="spacing" textLength="4" x="1521.5" y="219.892">&#160;</text><text fill="#000000" font-family="sans-serif" font-size="14" lengthAdjust="spacing" textLength="106" x="1521.5" y="236.1889">image: fir:latest</text><text fill="#000000" font-family="sans-serif" font-size="14" lengthAdjust="spacing" textLength="4" x="1521.5" y="252.4857">&#160;</text></g><!--entity bdc34731a1e5ddea2f1e3f058d39f99b--><g id="elem_bdc34731a1e5ddea2f1e3f058d39f99b"><rect fill="#F1F1F1" height="95.1875" rx="2.5" ry="2.5" style="stroke:#181818;stroke-width:0.5;" width="155" x="1791.5" y="170.6"/><rect fill="#F1F1F1" height="10" style="stroke:#181818;stroke-width:0.5;" width="15" x="1926.5" y="175.6"/><rect fill="#F1F1F1" height="2" style="stroke:#181818;stroke-width:0.5;" width="4" x="1924.5" y="177.6"/><rect fill="#F1F1F1" height="2" style="stroke:#181818;stroke-width:0.5;" width="4" x="1924.5" y="181.6"/><text fill="#000000" font-family="sans-serif" font-size="14" font-weight="bold" lengthAdjust="spacing" textLength="115" x="1806.5" y="203.5951">fir_celery_beat</text><text fill="#000000" font-family="sans-serif" font-size="14" lengthAdjust="spacing" textLength="4" x="1806.5" y="219.892">&#160;</text><text fill="#000000" font-family="sans-serif" font-size="14" lengthAdjust="spacing" textLength="106" x="1806.5" y="236.1889">image: fir:latest</text><text fill="#000000" font-family="sans-serif" font-size="14" lengthAdjust="spacing" textLength="4" x="1806.5" y="252.4857">&#160;</text></g><!--entity 49f2bbd097776d2c4be6fcff17bec6f1--><g id="elem_49f2bbd097776d2c4be6fcff17bec6f1"><rect fill="#F1F1F1" height="95.1875" rx="2.5" ry="2.5" style="stroke:#181818;stroke-width:0.5;" width="128" x="663" y="170.6"/><rect fill="#F1F1F1" height="10" style="stroke:#181818;stroke-width:0.5;" width="15" x="771" y="175.6"/><rect fill="#F1F1F1" height="2" style="stroke:#181818;stroke-width:0.5;" width="4" x="769" y="177.6"/><rect fill="#F1F1F1" height="2" style="stroke:#181818;stroke-width:0.5;" width="4" x="769" y="181.6"/><text fill="#000000" font-family="sans-serif" font-size="14" font-weight="bold" lengthAdjust="spacing" textLength="58" x="678" y="203.5951">fir_web</text><text fill="#000000" font-family="sans-serif" font-size="14" lengthAdjust="spacing" textLength="4" x="678" y="219.892">&#160;</text><text fill="#000000" font-family="sans-serif" font-size="14" lengthAdjust="spacing" textLength="88" x="678" y="236.1889">image: nginx</text><text fill="#000000" font-family="sans-serif" font-size="14" lengthAdjust="spacing" textLength="4" x="678" y="252.4857">&#160;</text></g><!--entity 7b0254885f62146adb121f29e2b0c117--><g id="elem_7b0254885f62146adb121f29e2b0c117"><ellipse cx="790" cy="373.79" fill="#F1F1F1" rx="8" ry="8" style="stroke:#181818;stroke-width:0.5;"/><text fill="#000000" font-family="sans-serif" font-size="14" lengthAdjust="spacing" textLength="18" x="781" y="403.7851">80</text></g><!--entity 546cb12c86f970a101ebdae7be1c97e1--><g id="elem_546cb12c86f970a101ebdae7be1c97e1"><rect fill="#F1F1F1" height="39.2969" rx="2.5" ry="2.5" style="stroke:#181818;stroke-width:0.5;" width="175" x="641.5" y="598.79"/><polygon fill="#F1F1F1" points="799.5,603.79,799.5,617.79,811.5,617.79,811.5,609.79,805.5,603.79,799.5,603.79" style="stroke:#181818;stroke-width:0.5;"/><line style="stroke:#181818;stroke-width:0.5;" x1="805.5" x2="805.5" y1="603.79" y2="609.79"/><line style="stroke:#181818;stroke-width:0.5;" x1="811.5" x2="805.5" y1="609.79" y2="609.79"/><text fill="#000000" font-family="sans-serif" font-size="14" lengthAdjust="spacing" textLength="145" x="651.5" y="624.7851">/etc/nginx/nginx.conf</text></g><!--entity 7310323b7d51dfc54fd2dd76ade4b9b6--><g id="elem_7310323b7d51dfc54fd2dd76ade4b9b6"><rect fill="#F1F1F1" height="39.2969" rx="2.5" ry="2.5" style="stroke:#181818;stroke-width:0.5;" width="178" x="428" y="598.79"/><polygon fill="#F1F1F1" points="589,603.79,589,617.79,601,617.79,601,609.79,595,603.79,589,603.79" style="stroke:#181818;stroke-width:0.5;"/><line style="stroke:#181818;stroke-width:0.5;" x1="595" x2="595" y1="603.79" y2="609.79"/><line style="stroke:#181818;stroke-width:0.5;" x1="601" x2="595" y1="609.79" y2="609.79"/><text fill="#000000" font-family="sans-serif" font-size="14" lengthAdjust="spacing" textLength="148" x="438" y="624.7851">/usr/share/nginx/html</text></g><!--entity 219bdf6b7a0a25b2de18261ae0b4d8f8--><g id="elem_219bdf6b7a0a25b2de18261ae0b4d8f8"><rect fill="#F1F1F1" height="95.1875" rx="2.5" ry="2.5" style="stroke:#181818;stroke-width:0.5;" width="204" x="2054" y="170.6"/><rect fill="#F1F1F1" height="10" style="stroke:#181818;stroke-width:0.5;" width="15" x="2238" y="175.6"/><rect fill="#F1F1F1" height="2" style="stroke:#181818;stroke-width:0.5;" width="4" x="2236" y="177.6"/><rect fill="#F1F1F1" height="2" style="stroke:#181818;stroke-width:0.5;" width="4" x="2236" y="181.6"/><text fill="#000000" font-family="sans-serif" font-size="14" font-weight="bold" lengthAdjust="spacing" textLength="104" x="2069" y="203.5951">fir_fake_smtp</text><text fill="#000000" font-family="sans-serif" font-size="14" lengthAdjust="spacing" textLength="4" x="2069" y="219.892">&#160;</text><text fill="#000000" font-family="sans-serif" font-size="14" lengthAdjust="spacing" textLength="164" x="2069" y="236.1889">image: mailhog/mailhog</text><text fill="#000000" font-family="sans-serif" font-size="14" lengthAdjust="spacing" textLength="4" x="2069" y="252.4857">&#160;</text></g><!--entity d8f2155bbe454b8d9a6246caea95b804--><g id="elem_d8f2155bbe454b8d9a6246caea95b804"><polygon fill="#F1F1F1" points="1370.5,16,1380.5,6,1499.5,6,1499.5,58.5938,1489.5,68.5938,1370.5,68.5938,1370.5,16" style="stroke:#181818;stroke-width:0.5;"/><line style="stroke:#181818;stroke-width:0.5;" x1="1489.5" x2="1499.5" y1="16" y2="6"/><line style="stroke:#181818;stroke-width:0.5;" x1="1370.5" x2="1489.5" y1="16" y2="16"/><line style="stroke:#181818;stroke-width:0.5;" x1="1489.5" x2="1489.5" y1="16" y2="68.5938"/><text fill="#000000" font-family="sans-serif" font-size="14" font-weight="bold" lengthAdjust="spacing" textLength="89" x="1385.5" y="38.9951">backend.fir</text><text fill="#000000" font-family="sans-serif" font-size="14" lengthAdjust="spacing" textLength="74" x="1385.5" y="55.292">&#171;network&#187;</text></g><!--entity 559d967330f68a61de384df0bc95fe57--><g id="elem_559d967330f68a61de384df0bc95fe57"><rect fill="#F1F1F1" height="39.2969" rx="2.5" ry="2.5" style="stroke:#181818;stroke-width:0.5;" width="122" x="40" y="733.08"/><polygon fill="#F1F1F1" points="145,738.08,145,752.08,157,752.08,157,744.08,151,738.08,145,738.08" style="stroke:#181818;stroke-width:0.5;"/><line style="stroke:#181818;stroke-width:0.5;" x1="151" x2="151" y1="738.08" y2="744.08"/><line style="stroke:#181818;stroke-width:0.5;" x1="157" x2="151" y1="744.08" y2="744.08"/><text fill="#000000" font-family="sans-serif" font-size="14" lengthAdjust="spacing" textLength="92" x="50" y="759.0751">/tmp/uploads</text></g><!--entity f2a8fb92b19d2edd0d2d12eb4b062599--><g id="elem_f2a8fb92b19d2edd0d2d12eb4b062599"><rect fill="#F1F1F1" height="39.2969" rx="2.5" ry="2.5" style="stroke:#181818;stroke-width:0.5;" width="126" x="303" y="733.08"/><polygon fill="#F1F1F1" points="412,738.08,412,752.08,424,752.08,424,744.08,418,738.08,412,738.08" style="stroke:#181818;stroke-width:0.5;"/><line style="stroke:#181818;stroke-width:0.5;" x1="418" x2="418" y1="738.08" y2="744.08"/><line style="stroke:#181818;stroke-width:0.5;" x1="424" x2="418" y1="744.08" y2="744.08"/><text fill="#000000" font-family="sans-serif" font-size="14" lengthAdjust="spacing" textLength="96" x="313" y="759.0751">static-content</text></g><!--entity 2bf1c83a3d39d9a377c7cd9339fe9e02--><g id="elem_2bf1c83a3d39d9a377c7cd9339fe9e02"><rect fill="#F1F1F1" height="39.2969" rx="2.5" ry="2.5" style="stroke:#181818;stroke-width:0.5;" width="120" x="988" y="733.08"/><polygon fill="#F1F1F1" points="1091,738.08,1091,752.08,1103,752.08,1103,744.08,1097,738.08,1091,738.08" style="stroke:#181818;stroke-width:0.5;"/><line style="stroke:#181818;stroke-width:0.5;" x1="1097" x2="1097" y1="738.08" y2="744.08"/><line style="stroke:#181818;stroke-width:0.5;" x1="1103" x2="1097" y1="744.08" y2="744.08"/><text fill="#000000" font-family="sans-serif" font-size="14" lengthAdjust="spacing" textLength="90" x="998" y="759.0751">mariadb-data</text></g><!--entity 35339c292751b492eae61999c5eec90e--><g id="elem_35339c292751b492eae61999c5eec90e"><rect fill="#F1F1F1" height="39.2969" rx="2.5" ry="2.5" style="stroke:#181818;stroke-width:0.5;" width="110" x="674" y="733.08"/><polygon fill="#F1F1F1" points="767,738.08,767,752.08,779,752.08,779,744.08,773,738.08,767,738.08" style="stroke:#181818;stroke-width:0.5;"/><line style="stroke:#181818;stroke-width:0.5;" x1="773" x2="773" y1="738.08" y2="744.08"/><line style="stroke:#181818;stroke-width:0.5;" x1="779" x2="773" y1="744.08" y2="744.08"/><text fill="#000000" font-family="sans-serif" font-size="14" lengthAdjust="spacing" textLength="80" x="684" y="759.0751">./nginx.conf</text></g><!--entity dba3f4d0bb5aa6fcfa18da2c1f7a9775--><g id="elem_dba3f4d0bb5aa6fcfa18da2c1f7a9775"><ellipse cx="900" cy="508.79" fill="#F1F1F1" rx="8" ry="8" style="stroke:#181818;stroke-width:0.5;"/><text fill="#000000" font-family="sans-serif" font-size="14" lengthAdjust="spacing" textLength="18" x="891" y="538.7851">80</text></g><!--link 1c44be91a2782f85c2315f4e17370ff7 to 559d967330f68a61de384df0bc95fe57--><g id="link_1c44be91a2782f85c2315f4e17370ff7_559d967330f68a61de384df0bc95fe57"><path codeLine="70" d="M101,638.39 C101,663.54 101,707.68 101,732.81 " fill="none" id="1c44be91a2782f85c2315f4e17370ff7-559d967330f68a61de384df0bc95fe57" style="stroke:#181818;stroke-width:1.0;"/><text fill="#000000" font-family="sans-serif" font-size="13" lengthAdjust="spacing" textLength="14" x="102" y="699.1469">rw</text></g><!--link e8aca87688a2dfa427a62ad0504d55c2 to 1c44be91a2782f85c2315f4e17370ff7--><g id="link_e8aca87688a2dfa427a62ad0504d55c2_1c44be91a2782f85c2315f4e17370ff7"><path codeLine="71" d="M165.41,266.05 C149.36,353.64 116.5123,532.8284 105.5623,592.5384 " fill="none" id="e8aca87688a2dfa427a62ad0504d55c2-to-1c44be91a2782f85c2315f4e17370ff7" style="stroke:#181818;stroke-width:1.0;stroke-dasharray:7.0,7.0;"/><polygon fill="#181818" points="104.48,598.44,110.0378,590.3091,105.3819,593.522,102.169,588.8661,104.48,598.44" style="stroke:#181818;stroke-width:1.0;"/><text fill="#000000" font-family="sans-serif" font-size="13" lengthAdjust="spacing" textLength="23" x="135" y="445.8569">use</text></g><!--link 95d8bbabb35db956ee75ce80b00cc5cf to f2a8fb92b19d2edd0d2d12eb4b062599--><g id="link_95d8bbabb35db956ee75ce80b00cc5cf_f2a8fb92b19d2edd0d2d12eb4b062599"><path codeLine="72" d="M278.61,638.39 C298,663.54 332.04,707.68 351.41,732.81 " fill="none" id="95d8bbabb35db956ee75ce80b00cc5cf-f2a8fb92b19d2edd0d2d12eb4b062599" style="stroke:#181818;stroke-width:1.0;"/><text fill="#000000" font-family="sans-serif" font-size="13" lengthAdjust="spacing" textLength="14" x="328" y="699.1469">rw</text></g><!--link e8aca87688a2dfa427a62ad0504d55c2 to 95d8bbabb35db956ee75ce80b00cc5cf--><g id="link_e8aca87688a2dfa427a62ad0504d55c2_95d8bbabb35db956ee75ce80b00cc5cf"><path codeLine="73" d="M184.59,266.05 C204.38,353.64 244.8868,532.8777 258.3868,592.5877 " fill="none" id="e8aca87688a2dfa427a62ad0504d55c2-to-95d8bbabb35db956ee75ce80b00cc5cf" style="stroke:#181818;stroke-width:1.0;stroke-dasharray:7.0,7.0;"/><polygon fill="#181818" points="259.71,598.44,261.6268,588.7795,258.6074,593.5631,253.8237,590.5437,259.71,598.44" style="stroke:#181818;stroke-width:1.0;"/><text fill="#000000" font-family="sans-serif" font-size="13" lengthAdjust="spacing" textLength="23" x="226" y="445.8569">use</text></g><!--reverse link d8f2155bbe454b8d9a6246caea95b804 to 1846c75923656922409346559bd15573--><g id="link_d8f2155bbe454b8d9a6246caea95b804_1846c75923656922409346559bd15573"><path codeLine="74" d="M1364.0905,39.0137 C1151.5705,41.6237 491.71,53.88 412,106.6 C389.385,121.56 375.465,148.585 367.16,172.1738 C366.1219,175.1223 365.1715,178.0172 364.3028,180.8282 C364.2485,181.0039 364.1945,181.1792 364.1409,181.3542 " fill="none" id="d8f2155bbe454b8d9a6246caea95b804-backto-1846c75923656922409346559bd15573" style="stroke:#181818;stroke-width:1.0;"/><polygon fill="#181818" points="1370.09,38.94,1361.0416,35.0508,1365.0904,39.0014,1361.1398,43.0502,1370.09,38.94" style="stroke:#181818;stroke-width:1.0;"/></g><!--link 555b325c038b9326da5726ce82f98ada to 2bf1c83a3d39d9a377c7cd9339fe9e02--><g id="link_555b325c038b9326da5726ce82f98ada_2bf1c83a3d39d9a377c7cd9339fe9e02"><path codeLine="75" d="M1048,638.39 C1048,663.54 1048,707.68 1048,732.81 " fill="none" id="555b325c038b9326da5726ce82f98ada-2bf1c83a3d39d9a377c7cd9339fe9e02" style="stroke:#181818;stroke-width:1.0;"/><text fill="#000000" font-family="sans-serif" font-size="13" lengthAdjust="spacing" textLength="14" x="1049" y="699.1469">rw</text></g><!--link 08cc2d131fbd18c7519779ee9ac1f6ab to 555b325c038b9326da5726ce82f98ada--><g id="link_08cc2d131fbd18c7519779ee9ac1f6ab_555b325c038b9326da5726ce82f98ada"><path codeLine="76" d="M1048,266.05 C1048,353.64 1048,532.73 1048,592.44 " fill="none" id="08cc2d131fbd18c7519779ee9ac1f6ab-to-555b325c038b9326da5726ce82f98ada" style="stroke:#181818;stroke-width:1.0;stroke-dasharray:7.0,7.0;"/><polygon fill="#181818" points="1048,598.44,1052,589.44,1048,593.44,1044,589.44,1048,598.44" style="stroke:#181818;stroke-width:1.0;"/><text fill="#000000" font-family="sans-serif" font-size="13" lengthAdjust="spacing" textLength="23" x="1049" y="445.8569">use</text></g><!--reverse link d8f2155bbe454b8d9a6246caea95b804 to 3fc0b0e39deb19b8743538a35e88ff7f--><g id="link_d8f2155bbe454b8d9a6246caea95b804_3fc0b0e39deb19b8743538a35e88ff7f"><path codeLine="77" d="M1364.2328,45.4119 C1315.8928,53.0119 1256.69,68.99 1212,106.6 C1191.255,124.06 1177.365,151.1225 1168.6075,174.1063 C1167.5128,176.9792 1166.4983,179.7885 1165.5607,182.5072 C1165.0918,183.8666 1164.6422,185.2034 1164.2114,186.5142 C1164.1575,186.6781 1164.104,186.8415 1164.0507,187.0046 " fill="none" id="d8f2155bbe454b8d9a6246caea95b804-backto-3fc0b0e39deb19b8743538a35e88ff7f" style="stroke:#181818;stroke-width:1.0;"/><polygon fill="#181818" points="1370.16,44.48,1360.648,41.9263,1365.2207,45.2566,1361.8905,49.8293,1370.16,44.48" style="stroke:#181818;stroke-width:1.0;"/></g><!--reverse link d8f2155bbe454b8d9a6246caea95b804 to 18bf25ce34c23da189d824516a6e2a9e--><g id="link_d8f2155bbe454b8d9a6246caea95b804_18bf25ce34c23da189d824516a6e2a9e"><path codeLine="78" d="M1435,75.05 C1435,87.6375 1435,97.0012 1435,113.0125 C1435,115.0139 1435,117.0254 1435,119.0429 C1435,120.0517 1435,121.0619 1435,122.0731 " fill="none" id="d8f2155bbe454b8d9a6246caea95b804-backto-18bf25ce34c23da189d824516a6e2a9e" style="stroke:#181818;stroke-width:1.0;"/><polygon fill="#181818" points="1435,69.05,1431,78.05,1435,74.05,1439,78.05,1435,69.05" style="stroke:#181818;stroke-width:1.0;"/></g><!--reverse link d8f2155bbe454b8d9a6246caea95b804 to 943da6c77095a66ae9cbbc7af2bb1727--><g id="link_d8f2155bbe454b8d9a6246caea95b804_943da6c77095a66ae9cbbc7af2bb1727"><path codeLine="79" d="M1505.6506,47.8697 C1574.8206,58.4797 1672.22,77.76 1699,106.6 C1703.1813,111.1038 1706.6364,116.1736 1709.4808,121.602 C1709.5697,121.7717 1709.658,121.9417 1709.7457,122.112 " fill="none" id="d8f2155bbe454b8d9a6246caea95b804-backto-943da6c77095a66ae9cbbc7af2bb1727" style="stroke:#181818;stroke-width:1.0;"/><polygon fill="#181818" points="1499.72,46.96,1508.0095,52.2783,1504.6622,47.7181,1509.2224,44.3708,1499.72,46.96" style="stroke:#181818;stroke-width:1.0;"/></g><!--reverse link d8f2155bbe454b8d9a6246caea95b804 to f9f2f64c6ed9547bf3385852469be10b--><g id="link_d8f2155bbe454b8d9a6246caea95b804_f9f2f64c6ed9547bf3385852469be10b"><path codeLine="80" d="M1505.57,37.4495 C1631.65,37.2295 1897.97,44.21 1963,106.6 C1967.4288,110.8488 1971.0553,115.7264 1974.01,121.0139 C1974.1947,121.3443 1974.3768,121.6764 1974.5562,122.01 C1974.6459,122.1768 1974.735,122.344 1974.8234,122.5116 " fill="none" id="d8f2155bbe454b8d9a6246caea95b804-backto-f9f2f64c6ed9547bf3385852469be10b" style="stroke:#181818;stroke-width:1.0;"/><polygon fill="#181818" points="1499.57,37.46,1508.577,41.4443,1504.57,37.4513,1508.563,33.4443,1499.57,37.46" style="stroke:#181818;stroke-width:1.0;"/></g><!--link 49f2bbd097776d2c4be6fcff17bec6f1 to 7b0254885f62146adb121f29e2b0c117--><g id="link_49f2bbd097776d2c4be6fcff17bec6f1_7b0254885f62146adb121f29e2b0c117"><path codeLine="81" d="M746.24,266.11 C760.79,301.58 779.47,347.11 786.82,365.04 " fill="none" id="49f2bbd097776d2c4be6fcff17bec6f1-7b0254885f62146adb121f29e2b0c117" style="stroke:#181818;stroke-width:1.0;"/></g><!--link 7b0254885f62146adb121f29e2b0c117 to dba3f4d0bb5aa6fcfa18da2c1f7a9775--><g id="link_7b0254885f62146adb121f29e2b0c117_dba3f4d0bb5aa6fcfa18da2c1f7a9775"><path codeLine="82" d="M796.55,382.71 C816.16,406.42 874.24,476.64 893.62,500.07 " fill="none" id="7b0254885f62146adb121f29e2b0c117-dba3f4d0bb5aa6fcfa18da2c1f7a9775" style="stroke:#181818;stroke-width:1.0;"/></g><!--link 546cb12c86f970a101ebdae7be1c97e1 to 35339c292751b492eae61999c5eec90e--><g id="link_546cb12c86f970a101ebdae7be1c97e1_35339c292751b492eae61999c5eec90e"><path codeLine="83" d="M729,638.39 C729,663.54 729,707.68 729,732.81 " fill="none" id="546cb12c86f970a101ebdae7be1c97e1-35339c292751b492eae61999c5eec90e" style="stroke:#181818;stroke-width:1.0;"/><text fill="#000000" font-family="sans-serif" font-size="13" lengthAdjust="spacing" textLength="13" x="730" y="699.1469">ro</text></g><!--link 49f2bbd097776d2c4be6fcff17bec6f1 to 546cb12c86f970a101ebdae7be1c97e1--><g id="link_49f2bbd097776d2c4be6fcff17bec6f1_546cb12c86f970a101ebdae7be1c97e1"><path codeLine="84" d="M727.24,266.05 C727.68,353.64 728.5699,532.7301 728.8699,592.4401 " fill="none" id="49f2bbd097776d2c4be6fcff17bec6f1-to-546cb12c86f970a101ebdae7be1c97e1" style="stroke:#181818;stroke-width:1.0;stroke-dasharray:7.0,7.0;"/><polygon fill="#181818" points="728.9,598.44,732.8547,589.42,728.8749,593.4401,724.8548,589.4602,728.9,598.44" style="stroke:#181818;stroke-width:1.0;"/><text fill="#000000" font-family="sans-serif" font-size="13" lengthAdjust="spacing" textLength="23" x="729" y="445.8569">use</text></g><!--link 7310323b7d51dfc54fd2dd76ade4b9b6 to f2a8fb92b19d2edd0d2d12eb4b062599--><g id="link_7310323b7d51dfc54fd2dd76ade4b9b6_f2a8fb92b19d2edd0d2d12eb4b062599"><path codeLine="85" d="M495.37,638.39 C466.66,663.54 416.28,707.68 387.59,732.81 " fill="none" id="7310323b7d51dfc54fd2dd76ade4b9b6-f2a8fb92b19d2edd0d2d12eb4b062599" style="stroke:#181818;stroke-width:1.0;"/><text fill="#000000" font-family="sans-serif" font-size="13" lengthAdjust="spacing" textLength="13" x="437" y="699.1469">ro</text></g><!--link 49f2bbd097776d2c4be6fcff17bec6f1 to 7310323b7d51dfc54fd2dd76ade4b9b6--><g id="link_49f2bbd097776d2c4be6fcff17bec6f1_7310323b7d51dfc54fd2dd76ade4b9b6"><path codeLine="86" d="M702.29,266.05 C656.11,353.64 561.2982,533.4225 529.8182,593.1325 " fill="none" id="49f2bbd097776d2c4be6fcff17bec6f1-to-7310323b7d51dfc54fd2dd76ade4b9b6" style="stroke:#181818;stroke-width:1.0;stroke-dasharray:7.0,7.0;"/><polygon fill="#181818" points="527.02,598.44,534.7557,592.3442,529.3518,594.017,527.679,588.6132,527.02,598.44" style="stroke:#181818;stroke-width:1.0;"/><text fill="#000000" font-family="sans-serif" font-size="13" lengthAdjust="spacing" textLength="23" x="615" y="445.8569">use</text></g><!--reverse link d8f2155bbe454b8d9a6246caea95b804 to e677578606ac4119536a88680cea8326--><g id="link_d8f2155bbe454b8d9a6246caea95b804_e677578606ac4119536a88680cea8326"><path codeLine="87" d="M1364.2272,43.2243 C1251.4872,51.7843 1030.4,72.31 959,106.6 C927.11,121.915 898.0275,148.945 876.7137,172.4475 C866.0569,184.1988 857.3422,195.0681 851.1898,203.1503 C850.4208,204.1606 849.6918,205.1273 849.004,206.0468 " fill="none" id="d8f2155bbe454b8d9a6246caea95b804-backto-e677578606ac4119536a88680cea8326" style="stroke:#181818;stroke-width:1.0;"/><polygon fill="#181818" points="1370.21,42.77,1360.933,39.4629,1365.2244,43.1485,1361.5387,47.4399,1370.21,42.77" style="stroke:#181818;stroke-width:1.0;"/></g><!--reverse link d8f2155bbe454b8d9a6246caea95b804 to 691b2293776915a64c9185056f9798d4--><g id="link_d8f2155bbe454b8d9a6246caea95b804_691b2293776915a64c9185056f9798d4"><path codeLine="88" d="M1505.7093,39.1825 C1692.5593,42.0625 2217.26,54.69 2274,106.6 C2278.5275,110.7425 2282.2284,115.54 2285.2377,120.7686 C2285.4258,121.0954 2285.6111,121.4239 2285.7938,121.754 C2285.8852,121.919 2285.9759,122.0845 2286.0659,122.2503 " fill="none" id="d8f2155bbe454b8d9a6246caea95b804-backto-691b2293776915a64c9185056f9798d4" style="stroke:#181818;stroke-width:1.0;"/><polygon fill="#181818" points="1499.71,39.09,1508.6473,43.2282,1504.7094,39.1671,1508.7706,35.2292,1499.71,39.09" style="stroke:#181818;stroke-width:1.0;"/></g><!--SRC=[bLNRRc9747pdAuvuIf0CSvzfQ-N7_4GIMTqpFVQHkGMEmwwY_7kQ0zYmIJJiYoq4tLrLNLEDo-NciEg_zkkNoNfJk9lEPeJvZTTbNllTRFRR-ikNDG-7pUxjwMdQuRuhgHhjFH4xxoWLm61SoCW8df9ovpw_zBlnvph9bz63iS47CCOfi2vu3rIaIxJTNvCkRrRRpPhNGyS9CwOOKa9JAZeJfJiMvPKhtcVJ_JgPpKPWaqc_mXT-xEJJun87tW-JoUyJt0rznJnqqmLkjultxNA3PNz2afqZ1eqc9bEJTBFQLySwsgXgZTUrV-9kSJWS5li1XpwFvU1B8a8Ywmk13ypHPqwAbChPvphv-vFvSw6nnjOitxE5mgI1KdJMsuJMSqeoiTwILobdKxJLLRH98fg6684PCEiQa2xafViL_nNkUYpq7VaZWMLFYzMt_H_B4OkNdLdZixA9m9fGq4SJX86faB3W3VuTb_wiMg8gLMoTw5LG9oZ9EAy31ZO8V4iXnWJ7EGBRAbjZSBeeSDewJbIA_g0m3hXYCNv-nEMsN_EHoZMOp4lUVNi-Uf1FfW8dKCHMKO77490X4-M8rH3fQE8jAB5ICLMMx5B82ci5sLyEe6Eidk1Jrvj1_skn_u16ZCC8h48rDRWSk81taQgroISl3mI8jQ9RO5IoTT5grEnBOJHLiwtAfsAXmh-17SVS1Ul09_znYD7755J0xBG6RmEc59BAZ4ayS0l7mL4_sLUCCHIJvRM4cclLaJY7-hayQNy5O_tIhxyU4VpqSpTDQXmSIHdlKl8r6Es2-5CRNGsm8PMrldbhFEJ5sEFqTvutwtfoh2I7rEKKAaI5McccWYneT8R8-hh9-twtsB_YZi-jNeVLoVOYhxB6KYnUbvgzgqNi40KIEzbzkD6juXi_xrV3TYmLXv0nO4KDqE8pbq4dh_mH3gJYRjKpyi1B3HHHeV5a2kjaWaPMv2GpquTw7qDk7d6_VDsyBCx_J_kyeZUiRhDCyhD0YDQg6X86NTWcLwgY3BwolzRt564FekeWC4ykDPWgWP5CAePBKIA9DaoEL30UuAhwd2uF1GSSQmrLdPD5AnwLx1TnSim5h3YMWPMvgfr_lr09FmlPW95e8mU6aOC6WEoPCoY-Tb0XjDKLHUGHZpQKw2be90aZYa7zf1NdtKDvQEhKFNRJtM4wQTwT-RpCvq_D6tBizxxdwQHrBKPqhJtyABhcq0kwvb5-U7zuQb_wraaPIROCSo7Pl7vdaisX5vBDutiVoUO1lAzDysJTrwPvOEvhqupwu-QQ8TxwmTYb-P1RCJzsQKN7wABDj4tiugBMq8kBMlVZ_eVy0-YQGo_ecWV-FZiqBzrTRVu1]--></g></svg>